<svg preserveAspectRatio="none" overflow="visible" style="display: block;" width="17.25" height="17.2502" viewBox="0 0 17.25 17.2502" fill="none" xmlns="http://www.w3.org/2000/svg">
<path id="Vector" d="M16 8.62518C16 7.02289 15.4784 5.46407 14.5137 4.18475C13.5489 2.90538 12.193 1.97492 10.6524 1.53435C9.11185 1.09391 7.46983 1.16753 5.97463 1.74334C4.47948 2.31916 3.21239 3.36584 2.36525 4.72576C1.51809 6.08587 1.13678 7.68541 1.27932 9.28143C1.42189 10.8773 2.08062 12.3831 3.15529 13.5715C4.23006 14.7599 5.66265 15.5666 7.23635 15.8683C8.80993 16.17 10.4389 15.9508 11.877 15.2443C12.1867 15.0921 12.5616 15.2198 12.7139 15.5295C12.866 15.8392 12.7383 16.2141 12.4287 16.3664C10.7469 17.1927 8.84131 17.4487 7.001 17.0959C5.16057 16.743 3.48449 15.8002 2.22756 14.4103C0.970782 13.0205 0.200952 11.2591 0.0341985 9.39275C-0.132475 7.5264 0.31317 5.65614 1.30373 4.0656C2.29448 2.47497 3.77665 1.2498 5.52541 0.576347C7.27404 -0.0970526 9.1945 -0.182905 10.9961 0.332206C12.7978 0.847441 14.3834 1.93561 15.5117 3.43182C16.64 4.92801 17.25 6.75123 17.25 8.62518C17.25 8.97035 16.9702 9.25018 16.625 9.25018C16.2798 9.25018 16 8.97035 16 8.62518Z" fill="black"/>
</svg>
