<svg preserveAspectRatio="none" overflow="visible" style="display: block;" width="16.0392" height="11" viewBox="0 0 16.0392 11" fill="none" xmlns="http://www.w3.org/2000/svg">
<path id="Vector" d="M12.6471 11L3.76471 10.9935C3.22876 10.9935 2.73203 10.9041 2.27451 10.7255C1.81699 10.5512 1.4183 10.3094 1.07843 10C0.738562 9.69063 0.472767 9.33115 0.281046 8.92157C0.0936819 8.51198 0 8.07407 0 7.60784C0 7.08932 0.0958606 6.61438 0.287582 6.18301C0.48366 5.75163 0.760349 5.39869 1.11765 5.12418C1.47495 4.84532 1.89325 4.67538 2.37255 4.61438C2.37255 4.16558 2.47059 3.76035 2.66667 3.39869C2.86275 3.03704 3.122 2.73856 3.44444 2.50327C3.76688 2.26797 4.122 2.11547 4.5098 2.04575C4.90196 1.97603 5.29194 2.00654 5.67974 2.13725C5.92375 1.7451 6.22222 1.3878 6.57516 1.06536C6.93246 0.742919 7.34641 0.485839 7.81699 0.294118C8.29194 0.0980392 8.82571 0 9.4183 0C10.0719 0 10.6776 0.122004 11.2353 0.366013C11.7974 0.610022 12.2876 0.954248 12.7059 1.39869C13.1242 1.84314 13.4466 2.36601 13.6732 2.96732C13.8998 3.56863 14.0087 4.2244 14 4.93464C14.4314 5.09586 14.7974 5.3268 15.098 5.62745C15.4031 5.9281 15.6362 6.27451 15.7974 6.66667C15.9586 7.05882 16.0392 7.47712 16.0392 7.92157C16.0392 8.34858 15.9521 8.74946 15.7778 9.12418C15.6035 9.49891 15.3617 9.82571 15.0523 10.1046C14.7473 10.3834 14.3878 10.6013 13.9739 10.7582C13.5643 10.9194 13.122 11 12.6471 11ZM12.6405 10.1961C13.1285 10.1961 13.5686 10.0959 13.9608 9.89542C14.3529 9.69499 14.6623 9.42266 14.8889 9.07843C15.1155 8.7342 15.2288 8.34858 15.2288 7.92157C15.2288 7.32462 15.0545 6.81264 14.7059 6.38562C14.3573 5.95861 13.8867 5.6732 13.2941 5.52941C13.2244 5.51634 13.1939 5.47059 13.2026 5.39216C13.207 5.25272 13.2135 5.10893 13.2222 4.96078C13.2309 4.80828 13.2309 4.66449 13.2222 4.52941C13.1786 3.84967 12.9891 3.22876 12.6536 2.66667C12.3224 2.10022 11.878 1.64924 11.3203 1.31373C10.7669 0.973856 10.1329 0.803922 9.4183 0.803922C8.84749 0.803922 8.35294 0.899782 7.93464 1.0915C7.51634 1.28322 7.15686 1.54031 6.85621 1.86275C6.55556 2.18083 6.29847 2.52941 6.08497 2.9085C6.05011 2.9695 5.99782 2.98911 5.9281 2.96732C5.58824 2.84532 5.25054 2.79956 4.91503 2.83007C4.57952 2.85621 4.27451 2.96078 4 3.14379C3.72549 3.32244 3.50545 3.57734 3.33987 3.9085C3.17865 4.23965 3.09804 4.64488 3.09804 5.12418C3.09804 5.20697 3.061 5.24837 2.98693 5.24837C2.52505 5.24837 2.13072 5.35294 1.80392 5.56209C1.48148 5.77124 1.23312 6.05447 1.05882 6.41176C0.888889 6.76906 0.803922 7.16776 0.803922 7.60784C0.803922 8.07843 0.932462 8.5098 1.18954 8.90196C1.44662 9.29412 1.79739 9.60784 2.24183 9.84314C2.69063 10.0741 3.19826 10.1895 3.76471 10.1895L12.6405 10.1961ZM7.46405 8.62745C7.38126 8.62745 7.30501 8.61002 7.23529 8.57516C7.16993 8.53595 7.10458 8.47712 7.03922 8.39869L5.52288 6.51634C5.44009 6.41612 5.39869 6.31155 5.39869 6.20261C5.39869 6.07625 5.44009 5.97386 5.52288 5.89542C5.60566 5.81699 5.70153 5.77778 5.81046 5.77778C5.96732 5.77778 6.09368 5.84532 6.18954 5.98039L7.44444 7.56209L9.94118 3.4183C10.0283 3.2658 10.1503 3.18954 10.3072 3.18954C10.4248 3.18954 10.5251 3.22658 10.6078 3.30065C10.6906 3.37473 10.732 3.46841 10.732 3.5817C10.732 3.6427 10.719 3.69935 10.6928 3.75163C10.671 3.80392 10.6492 3.85185 10.6275 3.89542L7.86928 8.39216C7.77778 8.54902 7.6427 8.62745 7.46405 8.62745Z" fill="#354043"/>
</svg>
