<svg preserveAspectRatio="none" overflow="visible" style="display: block;" width="17.5" height="17.5" viewBox="0 0 17.5 17.5" fill="none" xmlns="http://www.w3.org/2000/svg">
<path id="Vector" d="M8.74457 17.5C10.7601 17.5 12.7214 16.7948 14.3251 15.4603L8.10526 9.39554C7.94273 9.23281 7.89937 9.08092 7.89937 8.85308V0.0325514C3.49999 0.46652 0 4.24209 0 8.74458C0 13.5291 3.97679 17.5 8.74457 17.5ZM17.5 8.74458C17.5 7.46436 17.1966 6.12988 16.6548 5.03411L9.71982 9.04836L15.2786 14.5273C16.6548 12.9975 17.5 10.9144 17.5 8.74458ZM9.17802 7.86578L16.0155 3.91662C14.5526 1.68166 11.9303 0.130206 9.17802 0V7.86578Z" fill="#46C8FF"/>
</svg>
