<svg preserveAspectRatio="none" overflow="visible" style="display: block;" width="14.35" height="17.4545" viewBox="0 0 14.35 17.4545" fill="none" xmlns="http://www.w3.org/2000/svg">
<path id="Vector" d="M2.53854 17.4545C1.69236 17.4545 1.05638 17.2443 0.630592 16.8239C0.210197 16.4089 0 15.7837 0 14.9483V6.87992C0 6.04452 0.210197 5.41931 0.630592 5.00431C1.05638 4.58392 1.69236 4.37372 2.53854 4.37372H4.79411V5.67532H2.5547C2.15048 5.67532 1.84057 5.78312 1.62499 5.9987C1.4094 6.21429 1.30161 6.53228 1.30161 6.95268V14.8755C1.30161 15.2959 1.4094 15.6139 1.62499 15.8295C1.84057 16.0451 2.15048 16.1528 2.5547 16.1528H11.7872C12.186 16.1528 12.496 16.0451 12.7169 15.8295C12.9379 15.6139 13.0484 15.2959 13.0484 14.8755V6.95268C13.0484 6.53228 12.9379 6.21429 12.7169 5.9987C12.496 5.78312 12.186 5.67532 11.7872 5.67532H9.55589V4.37372H11.8115C12.6576 4.37372 13.2909 4.58392 13.7113 5.00431C14.1371 5.4247 14.35 6.04991 14.35 6.87992V14.9483C14.35 15.7783 14.1371 16.4035 13.7113 16.8239C13.2909 17.2443 12.6576 17.4545 11.8115 17.4545H2.53854ZM7.17096 12.1348C7.09011 12.1348 7.01196 12.1214 6.93651 12.0944C6.86644 12.0621 6.78829 12.0055 6.70206 11.9246L3.96949 9.28101C3.84553 9.15705 3.78355 9.01692 3.78355 8.86062C3.78355 8.69354 3.83745 8.5588 3.94524 8.45639C4.05303 8.3486 4.19316 8.2947 4.36563 8.2947C4.54888 8.2947 4.6971 8.35938 4.81028 8.48873L6.03104 9.79034L6.58079 10.3643L6.53228 9.15166V0.630592C6.53228 0.458122 6.59426 0.309906 6.71823 0.185944C6.84758 0.0619812 6.99849 0 7.17096 0C7.34882 0 7.49973 0.0619812 7.62369 0.185944C7.75304 0.309906 7.81772 0.458122 7.81772 0.630592V9.15166L7.76921 10.3643L8.31087 9.79034L9.53972 8.48873C9.6529 8.35938 9.79842 8.2947 9.97628 8.2947C10.1434 8.2947 10.2835 8.3486 10.3967 8.45639C10.5099 8.5588 10.5665 8.69354 10.5665 8.86062C10.5665 9.01692 10.5018 9.15705 10.3724 9.28101L7.63986 11.9246C7.55901 12.0055 7.48086 12.0621 7.40541 12.0944C7.33534 12.1214 7.25719 12.1348 7.17096 12.1348Z" fill="#F6F6F6"/>
</svg>
