<svg preserveAspectRatio="none" overflow="visible" style="display: block;" width="14" height="14" viewBox="0 0 14 14" fill="none" xmlns="http://www.w3.org/2000/svg">
<path id="Vector" d="M7 14C6.04154 14 5.13892 13.8162 4.29212 13.4487C3.44998 13.0857 2.70555 12.5833 2.05882 11.9412C1.41675 11.2945 0.911931 10.55 0.544367 9.70788C0.181456 8.86108 0 7.95846 0 7C0 6.04154 0.181456 5.14124 0.544367 4.2991C0.911931 3.45231 1.41675 2.70788 2.05882 2.0658C2.7009 1.41908 3.443 0.914257 4.28514 0.551346C5.13194 0.183782 6.03456 0 6.99302 0C7.95148 0 8.8541 0.183782 9.7009 0.551346C10.5477 0.914257 11.2921 1.41908 11.9342 2.0658C12.5763 2.70788 13.0811 3.45231 13.4487 4.2991C13.8162 5.14124 14 6.04154 14 7C14 7.95846 13.8162 8.86108 13.4487 9.70788C13.0811 10.55 12.5763 11.2945 11.9342 11.9412C11.2921 12.5833 10.5477 13.0857 9.7009 13.4487C8.85876 13.8162 7.95846 14 7 14ZM4.64806 9.80558C4.77833 9.80558 4.89 9.75906 4.98305 9.666L7 7.64207L9.02393 9.666C9.11233 9.75906 9.22167 9.80558 9.35194 9.80558C9.47757 9.80558 9.58225 9.76138 9.666 9.67298C9.7544 9.58458 9.7986 9.47989 9.7986 9.35892C9.7986 9.22399 9.7544 9.11698 9.666 9.03789L7.63509 7.00698L9.67298 4.97607C9.76138 4.88302 9.80558 4.77368 9.80558 4.64806C9.80558 4.52709 9.76138 4.42473 9.67298 4.34098C9.58923 4.25258 9.48455 4.20837 9.35892 4.20837C9.23795 4.20837 9.13327 4.2549 9.04487 4.34796L7 6.37886L4.96909 4.35494C4.87604 4.26653 4.76903 4.22233 4.64806 4.22233C4.52243 4.22233 4.41542 4.26421 4.32702 4.34796C4.24327 4.4317 4.2014 4.53406 4.2014 4.65503C4.2014 4.77601 4.2456 4.88302 4.334 4.97607L6.37188 7.00698L4.334 9.03789C4.2456 9.13094 4.2014 9.23795 4.2014 9.35892C4.2014 9.47989 4.24327 9.58458 4.32702 9.67298C4.41542 9.76138 4.52243 9.80558 4.64806 9.80558Z" fill="#354043"/>
</svg>
